<svg aria-hidden="true" style="width:0;height:0;position:absolute;overflow:hidden" xmlns="http://www.w3.org/2000/svg"><defs><symbol id="burgermenu" viewBox="0 0 60 32"><path d="M2 0h56a2 2 0 1 1 0 4H2a2 2 0 1 1 0-4zM2 14h56a2 2 0 1 1 0 4H2a2 2 0 1 1 0-4zM2 28h56a2 2 0 1 1 0 4H2a2 2 0 1 1 0-4z"/></symbol><symbol id="chevrondown" viewBox="0 0 52 32"><path d="M3.372 6.373 26 29.001 48.628 6.373 45.8 3.545 26 23.345 6.2 3.545 3.372 6.373z"/></symbol><symbol id="chevronleft" viewBox="0 0 20 32"><path d="m7.16 16 12.532 12.445L16.112 32 0 16 16.112 0l3.58 3.555L7.16 16z"/></symbol><symbol id="chevronright" viewBox="0 0 22 32"><path d="M13.079 16 .547 3.555 4.127 0l16.112 16L4.127 32l-3.58-3.555L13.079 16z"/></symbol><symbol id="cross" viewBox="0 0 32 32"><path d="m18.228 16 13.1-13.1A1.58 1.58 0 0 0 29.1.672L16 13.772 2.9.656A1.586 1.586 0 1 0 .656 2.9L13.772 16 .656 29.1a1.593 1.593 0 0 0-.552 1.139 1.572 1.572 0 0 0 1.003 1.532 1.578 1.578 0 0 0 1.776-.444l13.116-13.1 13.1 13.1a1.58 1.58 0 0 0 2.228-2.229l-13.1-13.1z"/></symbol><symbol id="heart" viewBox="0 0 36 32"><path d="m18.133 32-2.629-2.302C6.165 21.554 0 16.183 0 9.591 0 4.22 4.388 0 9.973 0c3.155 0 6.183 1.413 8.16 3.645C20.11 1.413 23.138 0 26.293 0c5.585 0 9.973 4.22 9.973 9.591 0 6.592-6.165 11.963-15.504 20.124l-2.629 2.284z"/></symbol><symbol id="search" viewBox="0 0 32 32"><path d="M13.474 26.947a13.395 13.395 0 0 0 8.248-2.843l7.404 7.404 2.381-2.381-7.404-7.404a13.392 13.392 0 0 0 2.845-8.249C26.948 6.045 20.903 0 13.474 0S0 6.045 0 13.474s6.045 13.474 13.474 13.474zm0-23.579c5.573 0 10.105 4.532 10.105 10.105s-4.532 10.105-10.105 10.105S3.369 19.046 3.369 13.473 7.901 3.368 13.474 3.368z"/></symbol><symbol id="arrow-down" viewBox="0 0 24 24"><path d="m12.543 15.93 7.965-8.36a.75.75 0 0 0 0-1.035l-.009-.009a.69.69 0 0 0-1 0l-7.5 7.872-7.497-7.872a.69.69 0 0 0-1 0l-.01.01a.75.75 0 0 0 0 1.034l7.965 8.36a.749.749 0 0 0 1.086 0Z"/></symbol><symbol id="icon-arrow-down" viewBox="0 0 32 32"><path d="m7.791 12.791 7.543 7.543 7.543-7.543-.943-.943-6.6 6.6-6.6-6.6-.943.943z"/></symbol></defs></svg>