<svg aria-hidden="true" style="position: absolute; width: 0; height: 0; overflow: hidden;" version="1.1" xmlns="http://www.w3.org/2000/svg" xmlns:xlink="http://www.w3.org/1999/xlink">
<defs>
<symbol id="burgermenu" viewBox="0 0 60 32">
<path d="M2 0h56c1.105 0 2 0.895 2 2s-0.895 2-2 2h-56c-1.105 0-2-0.895-2-2s0.895-2 2-2z"></path>
<path d="M2 14h56c1.105 0 2 0.895 2 2s-0.895 2-2 2h-56c-1.105 0-2-0.895-2-2s0.895-2 2-2z"></path>
<path d="M2 28h56c1.105 0 2 0.895 2 2s-0.895 2-2 2h-56c-1.105 0-2-0.895-2-2s0.895-2 2-2z"></path>
</symbol>
<symbol id="chevrondown" viewBox="0 0 52 32">
<path d="M3.372 6.373l22.628 22.628 22.628-22.628-2.828-2.828-19.8 19.8-19.8-19.8-2.828 2.828z"></path>
</symbol>
<symbol id="chevronleft" viewBox="0 0 20 32">
<path d="M7.16 16l12.532 12.445-3.58 3.555-16.112-16 16.112-16 3.58 3.555-12.532 12.445z"></path>
</symbol>
<symbol id="chevronright" viewBox="0 0 22 32">
<path d="M13.079 16l-12.532-12.445 3.58-3.555 16.112 16-16.112 16-3.58-3.555 12.532-12.445z"></path>
</symbol>
<symbol id="cross" viewBox="0 0 32 32">
<path d="M18.228 16l13.1-13.1c0.259-0.302 0.394-0.691 0.379-1.089s-0.18-0.775-0.462-1.056-0.659-0.446-1.056-0.462c-0.398-0.015-0.787 0.12-1.089 0.379l-13.1 13.1-13.1-13.116c-0.298-0.298-0.701-0.465-1.122-0.465s-0.824 0.167-1.122 0.465c-0.298 0.298-0.465 0.701-0.465 1.122s0.167 0.824 0.465 1.122l13.116 13.1-13.116 13.1c-0.165 0.142-0.3 0.316-0.395 0.512s-0.148 0.41-0.157 0.627 0.028 0.435 0.108 0.637c0.079 0.203 0.2 0.387 0.354 0.541s0.338 0.274 0.541 0.354 0.42 0.116 0.637 0.108c0.218-0.008 0.431-0.062 0.627-0.157s0.37-0.229 0.512-0.395l13.116-13.1 13.1 13.1c0.302 0.259 0.691 0.394 1.089 0.379s0.775-0.18 1.056-0.462 0.446-0.659 0.462-1.057c0.015-0.398-0.12-0.787-0.379-1.089l-13.1-13.1z"></path>
</symbol>
<symbol id="heart" viewBox="0 0 36 32">
<path d="M18.133 32l-2.629-2.302c-9.339-8.144-15.504-13.515-15.504-20.107 0-5.371 4.388-9.591 9.973-9.591 3.155 0 6.183 1.413 8.16 3.645 1.977-2.232 5.005-3.645 8.16-3.645 5.585 0 9.973 4.22 9.973 9.591 0 6.592-6.165 11.963-15.504 20.124l-2.629 2.284z"></path>
</symbol>
<symbol id="search" viewBox="0 0 32 32">
<path d="M13.474 26.947c2.989-0.001 5.893-1.001 8.248-2.843l7.404 7.404 2.381-2.381-7.404-7.404c1.843-2.355 2.844-5.259 2.845-8.249 0-7.429-6.045-13.474-13.474-13.474s-13.474 6.045-13.474 13.474c0 7.429 6.045 13.474 13.474 13.474zM13.474 3.368c5.573 0 10.105 4.532 10.105 10.105s-4.532 10.105-10.105 10.105c-5.573 0-10.105-4.532-10.105-10.105s4.532-10.105 10.105-10.105z"></path>
</symbol>
</defs>
</svg>
