<svg aria-hidden="true" style="position: absolute; width: 0; height: 0; overflow: hidden;" version="1.1"
     xmlns="http://www.w3.org/2000/svg">
  <defs>
    <symbol id="burgermenu" viewBox="0 0 60 32">
      <path d="M2 0h56c1.105 0 2 0.895 2 2s-0.895 2-2 2h-56c-1.105 0-2-0.895-2-2s0.895-2 2-2z"></path>
      <path d="M2 14h56c1.105 0 2 0.895 2 2s-0.895 2-2 2h-56c-1.105 0-2-0.895-2-2s0.895-2 2-2z"></path>
      <path d="M2 28h56c1.105 0 2 0.895 2 2s-0.895 2-2 2h-56c-1.105 0-2-0.895-2-2s0.895-2 2-2z"></path>
    </symbol>
    <symbol id="chevrondown" viewBox="0 0 52 32">
      <path d="M3.372 6.373l22.628 22.628 22.628-22.628-2.828-2.828-19.8 19.8-19.8-19.8-2.828 2.828z"></path>
    </symbol>
    <symbol id="chevronleft" viewBox="0 0 20 32">
      <path d="M7.16 16l12.532 12.445-3.58 3.555-16.112-16 16.112-16 3.58 3.555-12.532 12.445z"></path>
    </symbol>
    <symbol id="chevronright" viewBox="0 0 22 32">
      <path d="M13.079 16l-12.532-12.445 3.58-3.555 16.112 16-16.112 16-3.58-3.555 12.532-12.445z"></path>
    </symbol>
    <symbol id="cross" viewBox="0 0 32 32">
      <path
        d="M18.228 16l13.1-13.1c0.259-0.302 0.394-0.691 0.379-1.089s-0.18-0.775-0.462-1.056-0.659-0.446-1.056-0.462c-0.398-0.015-0.787 0.12-1.089 0.379l-13.1 13.1-13.1-13.116c-0.298-0.298-0.701-0.465-1.122-0.465s-0.824 0.167-1.122 0.465c-0.298 0.298-0.465 0.701-0.465 1.122s0.167 0.824 0.465 1.122l13.116 13.1-13.116 13.1c-0.165 0.142-0.3 0.316-0.395 0.512s-0.148 0.41-0.157 0.627 0.028 0.435 0.108 0.637c0.079 0.203 0.2 0.387 0.354 0.541s0.338 0.274 0.541 0.354 0.42 0.116 0.637 0.108c0.218-0.008 0.431-0.062 0.627-0.157s0.37-0.229 0.512-0.395l13.116-13.1 13.1 13.1c0.302 0.259 0.691 0.394 1.089 0.379s0.775-0.18 1.056-0.462 0.446-0.659 0.462-1.057c0.015-0.398-0.12-0.787-0.379-1.089l-13.1-13.1z"></path>
    </symbol>
    <symbol id="heart" viewBox="0 0 36 32">
      <path
        d="M18.133 32l-2.629-2.302c-9.339-8.144-15.504-13.515-15.504-20.107 0-5.371 4.388-9.591 9.973-9.591 3.155 0 6.183 1.413 8.16 3.645 1.977-2.232 5.005-3.645 8.16-3.645 5.585 0 9.973 4.22 9.973 9.591 0 6.592-6.165 11.963-15.504 20.124l-2.629 2.284z"></path>
    </symbol>
    <symbol id="search" viewBox="0 0 32 32">
      <path
        d="M13.474 26.947c2.989-0.001 5.893-1.001 8.248-2.843l7.404 7.404 2.381-2.381-7.404-7.404c1.843-2.355 2.844-5.259 2.845-8.249 0-7.429-6.045-13.474-13.474-13.474s-13.474 6.045-13.474 13.474c0 7.429 6.045 13.474 13.474 13.474zM13.474 3.368c5.573 0 10.105 4.532 10.105 10.105s-4.532 10.105-10.105 10.105c-5.573 0-10.105-4.532-10.105-10.105s4.532-10.105 10.105-10.105z"></path>
    </symbol>
    <symbol id="settings" viewBox="0 0 490.2 490.2">
      <path d="M469.1,173.1h-37.5c-1-3.1-3.1-6.3-4.2-9.4l26.1-26.1c8.3-8.3,8.3-20.9,0-29.2l-71.9-71.9c-8.3-8.3-20.9-8.3-29.2,0
				l-26.1,26.1c-3.1-2.1-6.3-3.1-9.4-4.2V20.9C316.9,9.4,307.5,0,296,0H193.9C182.4,0,173,9.4,173,20.9v37.5c-3.1,1-6.3,3.1-9.4,4.2
				l-26.1-26.1c-8.3-8.3-20.9-8.3-29.2,0l-71.9,71.9c-4.2,4.2-6.3,9.4-6.3,14.6s2.1,10.4,6.3,14.6l26.1,26.1
				c-2.1,3.1-3.1,6.3-4.2,9.4H20.9C9.4,173.1,0,182.5,0,194v102.2c0,11.5,9.4,20.9,20.9,20.9h37.5c1,3.1,3.1,6.3,4.2,9.4l-26.1,26.1
				c-4.2,4.2-6.3,9.4-6.3,14.6s2.1,10.4,6.3,14.6l71.9,71.9c8.3,8.3,20.9,8.3,29.2,0l26.1-26.1c3.1,2.1,6.3,3.1,9.4,4.2v37.5
				c0,11.5,9.4,20.9,20.9,20.9h102.2c11.5,0,20.9-9.4,20.9-20.9v-37.5c3.1-1,6.3-3.1,9.4-4.2l26.1,26.1c8.3,8.3,20.9,8.3,29.2,0
				l71.9-71.9c8.3-8.3,8.3-20.9,0-29.2l-26.1-26.1c2.1-3.1,3.1-6.3,4.2-9.4h37.5c11.5,0,20.9-9.4,20.9-20.9V193.9
				C490,182.4,480.6,173.1,469.1,173.1z M448.3,275.2H417c-9.4,0-16.7,6.3-19.8,14.6c-3.1,10.4-7.3,20.9-12.5,30.2
				c-5.2,8.3-3.1,18.8,3.1,25l21.9,21.9L367,409.7l-21.9-21.9c-7.3-6.3-16.7-7.3-25-3.1c-9.4,5.2-19.8,9.4-30.2,12.5
				c-8.3,2.1-14.6,10.4-14.6,19.8v31.3h-60.5l0,0V417c0-9.4-6.3-16.7-14.6-19.8c-10.4-3.1-20.9-7.3-30.2-12.5
				c-8.3-5.2-18.8-3.1-25,3.1l-22,21.9L80.3,367l21.9-21.9c6.3-7.3,7.3-16.7,3.1-25c-5.2-9.4-9.4-19.8-12.5-30.2
				c-2.1-8.3-10.4-14.6-19.8-14.6H41.7v-60.5H73c9.4,0,16.7-6.3,19.8-14.6c3.1-10.4,7.3-20.9,12.5-30.2c5.2-8.3,3.1-18.8-3.1-25
				l-21.9-22L123,80.3l21.9,21.9c7.3,6.3,16.7,7.3,25,3.1c9.4-5.2,19.8-9.4,30.2-12.5c8.3-2.1,14.6-10.4,14.6-19.8V41.7h60.5V73
				c0,9.4,6.3,16.7,14.6,19.8c10.4,3.1,20.9,7.3,30.2,12.5c8.3,5.2,18.8,3.1,25-3.1l22-21.9l42.7,42.7l-21.9,21.9
				c-6.3,7.3-7.3,16.7-3.1,25c5.2,9.4,9.4,19.8,12.5,30.2c2.1,8.3,10.4,14.6,19.8,14.6h31.3L448.3,275.2L448.3,275.2z"/>
      <path d="M245,131.4c-62.6,0-113.6,51.1-113.6,113.6s51,113.6,113.6,113.6s113.6-51,113.6-113.6S307.6,131.4,245,131.4z
				 M245,316.9c-39.6,0-71.9-32.3-71.9-71.9s32.3-71.9,71.9-71.9s71.9,32.3,71.9,71.9S284.6,316.9,245,316.9z"/>
    </symbol>
    <symbol id="arrow-down" viewBox="0 0 24 24">
      <path
        d="M12.5432 15.9299L20.5082 7.57045C20.6412 7.43096 20.7153 7.24565 20.7153 7.05295C20.7153 6.86024 20.6412 6.67493 20.5082 6.53545L20.4992 6.52645C20.4347 6.45859 20.3571 6.40456 20.2711 6.36764C20.1851 6.33072 20.0925 6.31168 19.9989 6.31168C19.9054 6.31168 19.8127 6.33072 19.7267 6.36764C19.6407 6.40456 19.5631 6.45859 19.4987 6.52645L11.9987 14.3984L4.50169 6.52645C4.43723 6.45859 4.35964 6.40456 4.27364 6.36764C4.18764 6.33072 4.09503 6.31168 4.00144 6.31168C3.90785 6.31168 3.81524 6.33072 3.72924 6.36764C3.64324 6.40456 3.56565 6.45859 3.50119 6.52645L3.49219 6.53545C3.35922 6.67493 3.28505 6.86024 3.28505 7.05295C3.28505 7.24565 3.35922 7.43096 3.49219 7.57045L11.4572 15.9299C11.5272 16.0035 11.6115 16.062 11.7048 16.102C11.7982 16.142 11.8986 16.1626 12.0002 16.1626C12.1017 16.1626 12.2022 16.142 12.2956 16.102C12.3889 16.062 12.4731 16.0035 12.5432 15.9299Z"/>
    </symbol>
    <symbol id="icon-arrow-down" viewBox="0 0 32 32">
<path d="M7.791 12.791l7.543 7.543 7.543-7.543-0.943-0.943-6.6 6.6-6.6-6.6-0.943 0.943z"></path>
</symbol>
  </defs>
</svg>

